<svg xmlns="http://www.w3.org/2000/svg" width="64.26" height="64.26" viewBox="0 0 64.26 64.26"><g id="Layer_2" data-name="Layer 2"><g id="Layer_1-2" data-name="Layer 1"><g id="whats_app"><g id="ns_youtube"><rect width="64.26" height="64.26" style="fill:#60d36b"/></g><path d="M48.44,15.4A21.38,21.38,0,0,0,14.79,41.2l-3,11.08,11.34-3a21.27,21.27,0,0,0,10.22,2.6h0A21.38,21.38,0,0,0,48.44,15.4ZM33.16,48.28h0a17.74,17.74,0,0,1-9-2.47l-.64-.39-6.73,1.77,1.8-6.56L18.1,40a17.78,17.78,0,1,1,15.06,8.32Zm9.89-13.36c-.54-.27-3.17-1.56-3.65-1.74s-.85-.26-1.21.27-1.38,1.74-1.69,2.1-.62.4-1.16.13A14.69,14.69,0,0,1,31.05,33a16.15,16.15,0,0,1-3-3.7c-.32-.54,0-.8.23-1.09a15.13,15.13,0,0,0,1.34-1.83,1,1,0,0,0,0-.94c-.13-.26-1.2-2.89-1.65-4s-.87-.9-1.2-.92-.67,0-1,0a2,2,0,0,0-1.43.67,6,6,0,0,0-1.87,4.46,10.3,10.3,0,0,0,2.19,5.52c.26.36,3.76,5.76,9.12,8.07a32.22,32.22,0,0,0,3,1.13,7.5,7.5,0,0,0,3.36.21c1-.16,3.16-1.3,3.61-2.54a4.54,4.54,0,0,0,.31-2.54C43.94,35.32,43.58,35.19,43.05,34.92Z" style="fill:#fff;fill-rule:evenodd"/></g></g></g></svg>