<?xml version="1.0" encoding="utf-8"?>
<!-- Generator: Adobe Illustrator 23.0.5, SVG Export Plug-In . SVG Version: 6.00 Build 0)  -->
<svg version="1.1" id="Layer_1" xmlns="http://www.w3.org/2000/svg" xmlns:xlink="http://www.w3.org/1999/xlink" x="0px" y="0px"
	 viewBox="0 0 1537.5 1535.8" style="enable-background:new 0 0 1537.5 1535.8;" xml:space="preserve" width="100" height="100">
<style type="text/css">
	.st0{fill-rule:evenodd;clip-rule:evenodd;fill:#EEEEEE;}
	.st1{fill-rule:evenodd;clip-rule:evenodd;fill:#54CC61;}
	.st2{fill-rule:evenodd;clip-rule:evenodd;fill:#FFFFFE;}
	.st3{fill:none;}
</style>
<g id="Layer_x0020_1">
	<g id="_316006000">
		<path id="_316005568" class="st0" d="M475.4,1384.1l-364.6,116L0.4,1535.3l155.1-458.1c-26-47.8-46.6-98.5-61.3-151
			c-17.8-63.7-26.8-129.5-26.8-195.6c0-194.6,77.4-379.1,215.4-516C421.2,77.3,607.1,1.2,802.1,1.2c194.9,0,380.7,76.2,519,213.6
			c138,137,215.3,321.5,215.3,516.1c0,194.6-77.4,379-215.4,515.9c-138.4,137.3-324.2,213.5-519.1,213.5c-61.8,0-123.5-7.6-183.4-23
			C569,1424.6,521.1,1406.7,475.4,1384.1L475.4,1384.1z"/>
		<path id="_316005808" class="st1" d="M1477.8,730.8c0-185.3-75.7-353.1-198-474.5C1157.5,134.9,988.6,59.7,802.1,59.7
			c-186.7,0-355.7,75.1-478.1,196.5C201.6,377.6,125.9,545.4,125.9,730.6c0,62.2,8.6,122.5,24.6,179.8
			c15.9,57,39.3,110.9,68.8,160.7L102.3,1417l-9.3,27.3l27.5-8.8L480.7,1321c47.7,25.7,98.7,45.8,152.3,59.5
			c54,13.8,110.5,21.1,168.9,21.1c186.6,0,355.6-75.1,477.9-196.5C1402.1,1083.7,1477.8,916,1477.8,730.8L1477.8,730.8z"/>
		<path id="_316006024" class="st2" d="M692.1,547.6c-3-6-20.1-47.3-35.9-85.5c-10.1-24.4-19.7-47.6-21.6-52.1
			c-17.8-42.4-37.4-41.1-52.5-40.1c-1,0.1-1.9,0.1-3.2,0.1c-5.3,0-10.4-0.3-15.8-0.7c-6.7-0.4-13.6-0.9-20.2-0.9
			c-8.7,0-20.6,1.8-33.2,7.7c-9.3,4.3-18.9,10.9-27.6,20.5c-1.3,1.4-2.2,2.4-3.3,3.5c-20.9,21.9-66.4,69.8-66.4,161.6
			c0,96.3,69.5,187.9,79.7,201.4l0,0l0.1,0.1l0.1,0.1c0.4,0.5,1.9,2.7,4.1,5.9c25.7,37.5,143.6,210,322.9,280
			c162.7,63.5,192.1,56.3,218.4,50c4.5-1.1,8.8-2.1,13.6-2.6c21.3-2,56.1-16.6,85.4-37c24.3-17,45.5-38.4,53.7-61
			c7.2-20.2,11.3-39,13.2-54.4c2.8-22.4,0.6-40.1-3.5-46.9l-0.1-0.1c-6.2-10.2-16.9-15.3-33-22.9c-2.8-1.3-5.9-2.8-8.8-4.2l0,0
			c-11.1-5.6-49.5-24.4-82.4-40c-21.2-10-40.1-18.7-47.6-21.3c-10.5-3.8-19.7-6.6-29.5-5.5c-11.1,1.3-20.8,7-29.8,20.6l0,0
			c-4.5,6.8-12.5,17-21.2,27.6c-13.8,16.9-30.2,35.8-37.2,43.8v0.1c-3,3.4-5.6,5.3-8.1,5.6c-3.5,0.4-8.3-1-15-4.3
			c-4.3-2.1-8.4-3.9-13.6-6.2c-26-11.2-76.6-33-134.2-84.1c-20.6-18.3-38.8-38.2-53.9-56.9c-24.5-30.3-41.1-57.3-47.7-68.7
			c-5.2-8.9,0.6-14.7,5.9-20l0,0c5.9-5.9,12.6-13.9,19.3-22c3.1-3.7,6.1-7.3,9.8-11.6l0.1-0.1c9-10.5,12.8-18.2,17.8-28.5
			c0.9-1.8,1.8-3.7,2.7-5.5l0.1-0.1c4.4-9,5.6-17.5,4.8-25.5C697.6,560.2,695.2,553.6,692.1,547.6L692.1,547.6L692.1,547.6z"/>
	</g>
</g>
<rect x="-255.6" y="-255.8" class="st3" width="2048" height="2048"/>
</svg>
