<?xml version="1.0"?>
<svg xmlns="http://www.w3.org/2000/svg" xmlns:xlink="http://www.w3.org/1999/xlink" xmlns:svgjs="http://svgjs.com/svgjs" version="1.1" width="512" height="512" x="0" y="0" viewBox="0 0 32 32" style="enable-background:new 0 0 512 512" xml:space="preserve" class=""><g transform="matrix(0.6,0,0,0.6,6.400000381469729,6.3999996185302805)"><path xmlns="http://www.w3.org/2000/svg" d="m29.352 13.796-2.866-.22c-.271-1.178-.736-2.279-1.359-3.274l1.873-2.185c.239-.279.223-.694-.037-.954l-2.126-2.126c-.259-.259-.675-.275-.954-.037l-2.185 1.873c-.995-.622-2.096-1.087-3.274-1.359l-.22-2.866c-.028-.365-.334-.648-.701-.648h-3.007c-.367 0-.672.283-.7.648l-.22 2.866c-1.178.271-2.279.736-3.274 1.359l-2.185-1.872c-.278-.239-.694-.223-.953.036l-2.127 2.127c-.26.259-.275.675-.037.954l1.873 2.185c-.622.995-1.087 2.096-1.359 3.274l-2.866.22c-.365.027-.648.333-.648.699v3.007c0 .367.283.672.648.7l2.866.22c.271 1.178.736 2.279 1.359 3.274l-1.873 2.185c-.239.279-.223.694.037.954l2.126 2.126c.259.259.675.275.954.037l2.185-1.873c.995.623 2.096 1.087 3.274 1.359l.22 2.866c.028.366.334.649.701.649h3.007c.367 0 .672-.283.7-.648l.22-2.866c1.178-.271 2.279-.736 3.274-1.359l2.185 1.873c.279.239.694.223.954-.037l2.126-2.126c.26-.26.275-.675.037-.954l-1.873-2.185c.622-.995 1.087-2.096 1.359-3.274l2.866-.22c.365-.028.648-.334.648-.701v-3.007c0-.366-.283-.672-.648-.7zm-13.352 8.204c-3.314 0-6-2.686-6-6s2.686-6 6-6 6 2.686 6 6-2.686 6-6 6z" fill="#ffffff" data-original="#000000" style="" class=""/></g></svg>
